After the funeral of his daughter Ema, Frank Osorio travels for the first time to Buenos Aires to tell his granddaughter Alina about her mother's death. But Frank has to big secrets: the first one is about the identity of Alina's father and the second one is related to a crime.
 
http://www.imdb.com/title/tt0318765/

General
Complete name : El Viento (2005).avi
Format : AVI
Format/Info : Audio Video Interleave
File size : 699 MiB
Duration : 1h 35mn
Overall bit rate : 1 020 Kbps
Writing application : VirtualDubMod 1.5.4.1 (build 2178/release)
Writing library : VirtualDubMod build 2178/release

Video
ID : 0
Format : MPEG-4 Visual
Format profile : Simple@L3
Format settings, BVOP : Yes
Format settings, QPel : No
Format settings, GMC : No warppoints
Format settings, Matrix : Custom
Codec ID : XVID
Codec ID/Hint : XviD
Duration : 1h 35mn
Bit rate : 896 Kbps
Width : 608 pixels
Height : 336 pixels
Display aspect ratio : 16:9
Frame rate : 29.970 fps
Color space : YUV
Chroma subsampling : 4:2:0
Bit depth : 8 bits
Scan type : Progressive
Compression mode : Lossy
Bits/(Pixel*Frame) : 0.146
Stream size : 614 MiB (88%)
Writing library : XviD 1.0.3 (UTC 2004-12-20)

Audio
ID : 1
Format : MPEG Audio
Format version : Version 1
Format profile : Layer 3
Mode : Joint stereo
Codec ID : 55
Codec ID/Hint : MP3
Duration : 1h 35mn
Bit rate mode : Variable
Bit rate : 109 Kbps
Nominal bit rate : 128 Kbps
Channel(s) : 2 channels
Sampling rate : 48.0 KHz
Compression mode : Lossy
Stream size : 74.9 MiB (11%)
Alignment : Aligned on interleaves
Interleave, duration : 24 ms (0.72 video frame)
Interleave, preload duration : 544 ms
Writing library : LAME3.97b
Encoding settings : -m j -V 4 -q 2 -lowpass 17 --abr 128
Language : Spanish